<?xml version="1.0" encoding="utf-8"?>
<!-- Generator: Adobe Illustrator 25.0.0, SVG Export Plug-In . SVG Version: 6.00 Build 0)  -->
<svg version="1.1" xmlns="http://www.w3.org/2000/svg" xmlns:xlink="http://www.w3.org/1999/xlink" x="0px" y="0px"
	 viewBox="0 0 915.7 190.2" style="enable-background:new 0 0 915.7 190.2;" xml:space="preserve">
<style type="text/css">
	.st0{fill:url(#SVGID_1_);}
	.st1{fill:url(#SVGID_2_);}
	.st2{fill:url(#SVGID_3_);}
	.st3{fill:url(#SVGID_4_);}
	.st4{fill:url(#SVGID_5_);}
	.st5{fill:url(#SVGID_6_);}
	.st6{fill:url(#SVGID_7_);}
	.st7{fill:url(#SVGID_8_);}
</style>
<g id="Background">
</g>
<g id="Graphic_Elements">
	<g>
		<g>
			<linearGradient id="SVGID_1_" gradientUnits="userSpaceOnUse" x1="925.1343" y1="106.5612" x2="325.4352" y2="106.5612">
				<stop  offset="0" style="stop-color:#C4285D"/>
				<stop  offset="1" style="stop-color:#3A4F97"/>
			</linearGradient>
			<path class="st0" d="M301.2,52.1h88v22.5h-31.7v86.5h-24.6V74.5h-31.7V52.1z"/>
			<linearGradient id="SVGID_2_" gradientUnits="userSpaceOnUse" x1="925.1343" y1="122.5737" x2="325.4352" y2="122.5737">
				<stop  offset="0" style="stop-color:#C4285D"/>
				<stop  offset="1" style="stop-color:#3A4F97"/>
			</linearGradient>
			<path class="st1" d="M402.1,93.8c6.8-7.4,15.5-11.1,26-11.1c8,0,14.7,2.5,20,7.5v-6.4h23.8v77.1h-23.8v-6.4
				c-5.1,5.1-11.8,7.7-20,7.7c-10.4,0-19-3.8-25.9-11.3c-6.9-7.5-10.3-17.1-10.3-28.6C391.9,110.9,395.3,101.3,402.1,93.8z
				 M415.1,122.5c0,5.1,1.6,9.3,4.7,12.6c3,3.2,7,4.9,11.9,4.9c4.9,0,8.9-1.6,11.9-4.9c3-3.2,4.5-7.4,4.5-12.6
				c0-5.1-1.5-9.3-4.5-12.5c-3-3.2-7-4.8-11.9-4.8c-5,0-9.1,1.6-12.1,4.9C416.6,113.3,415.1,117.5,415.1,122.5z"/>
			<linearGradient id="SVGID_3_" gradientUnits="userSpaceOnUse" x1="925.1343" y1="122.7415" x2="325.4352" y2="122.7415">
				<stop  offset="0" style="stop-color:#C4285D"/>
				<stop  offset="1" style="stop-color:#3A4F97"/>
			</linearGradient>
			<path class="st2" d="M501.1,133.6c0.8,2.1,3.2,4.5,7.2,7.1c4,2.6,8,3.9,12.1,3.9c5.9,0,8.9-1.8,8.9-5.4c0-0.9-0.3-1.7-0.8-2.5
				c-0.6-0.8-1.4-1.5-2.6-2c-1.2-0.6-2.3-1-3.3-1.4c-1-0.4-2.3-0.8-3.9-1.3c-1.6-0.5-2.8-0.9-3.6-1.1c-0.1-0.1-1-0.4-2.6-0.9
				c-1.6-0.5-2.9-0.9-3.9-1.3c-1-0.4-2.4-1-4.3-1.8c-1.9-0.8-3.5-1.7-4.7-2.5c-1.2-0.8-2.6-1.9-4.1-3.2c-1.5-1.3-2.7-2.6-3.6-4
				c-0.9-1.4-1.7-3-2.3-4.9c-0.7-1.8-1-3.8-1-6c0-7.9,3-13.9,9.1-18c6-4.1,13.5-6.1,22.5-6.1c8,0,14.9,1.6,20.6,4.9
				c5.7,3.2,9.7,7.2,12.1,11.7l-15.4,10.2c-1.3-1.9-3.8-3.8-7.5-5.7c-3.6-1.9-7.2-2.9-10.6-2.9c-5,0-7.5,1.6-7.5,4.7
				c0,1,0.3,1.9,0.8,2.7c0.6,0.8,1.4,1.5,2.6,2.1c1.2,0.6,2.2,1.1,3.2,1.5c0.9,0.4,2.3,0.8,3.9,1.3s2.9,0.9,3.5,1.1
				c0.1,0,0.8,0.2,2.1,0.7c1.3,0.4,2.2,0.8,2.9,1c0.6,0.2,1.7,0.7,3.3,1.3c1.6,0.7,2.8,1.3,3.7,1.8c0.9,0.5,2.1,1.2,3.5,2
				c1.5,0.8,2.6,1.7,3.5,2.5c0.9,0.8,1.9,1.8,3,3c1.1,1.2,2,2.3,2.5,3.5c0.6,1.2,1.1,2.5,1.5,4c0.4,1.5,0.7,3.1,0.7,4.8
				c0,8-2.9,14.2-8.6,18.5c-5.7,4.3-13.6,6.5-23.6,6.5c-9.1,0-16.7-1.8-22.9-5.5c-6.2-3.7-10.4-8.1-12.5-13.2L501.1,133.6z"/>
			<linearGradient id="SVGID_4_" gradientUnits="userSpaceOnUse" x1="925.1343" y1="106.5612" x2="325.4352" y2="106.5612">
				<stop  offset="0" style="stop-color:#C4285D"/>
				<stop  offset="1" style="stop-color:#3A4F97"/>
			</linearGradient>
			<path class="st3" d="M589.1,52.1v59.9l21.8-28h27.7l-28.5,36.6l32,40.6h-27.7l-25.3-32v32h-23.8v-109H589.1z"/>
			<linearGradient id="SVGID_5_" gradientUnits="userSpaceOnUse" x1="925.1343" y1="106.4773" x2="325.4352" y2="106.4773">
				<stop  offset="0" style="stop-color:#C4285D"/>
				<stop  offset="1" style="stop-color:#3A4F97"/>
			</linearGradient>
			<path class="st4" d="M651.5,161.1v-20.6l47.3-65.7h-46.3V52.1l77.5-0.2v20.8l-48.1,65.7l47.1,0.2v22.5H651.5z"/>
			<linearGradient id="SVGID_6_" gradientUnits="userSpaceOnUse" x1="925.1343" y1="122.5738" x2="325.4352" y2="122.5738">
				<stop  offset="0" style="stop-color:#C4285D"/>
				<stop  offset="1" style="stop-color:#3A4F97"/>
			</linearGradient>
			<path class="st5" d="M751.1,93.7c7-7.5,16.4-11.2,28-11.2c11.4,0,20.5,3.7,27.2,11.2c6.7,7.5,10.1,17.1,10.1,28.8v6.4h-52.6
				c1,4.2,3,7.6,5.9,10c2.9,2.4,6.4,3.6,10.4,3.6c7.3,0,12.7-2.4,16.3-7.2l16.3,12.1c-3.5,4.8-8,8.6-13.7,11.3
				c-5.6,2.7-11.9,4.1-18.9,4.1c-11.7,0-21.2-3.8-28.5-11.4c-7.3-7.6-10.9-17.2-10.9-28.8C740.5,110.9,744,101.3,751.1,93.7z
				 M764,113.9h29.8c-2.3-8.5-7.3-12.7-14.8-12.7C771.4,101.2,766.3,105.4,764,113.9z"/>
			<linearGradient id="SVGID_7_" gradientUnits="userSpaceOnUse" x1="925.1343" y1="121.903" x2="325.4352" y2="121.903">
				<stop  offset="0" style="stop-color:#C4285D"/>
				<stop  offset="1" style="stop-color:#3A4F97"/>
			</linearGradient>
			<path class="st6" d="M830.7,83.9h23.8v6.4c5.1-5,12-7.5,20.5-7.5c8,0,15.1,2.5,21,7.4c6,4.9,9,12.9,9,23.8v47.1h-24v-43.3
				c0-5.7-1.4-9.6-4.3-11.7c-2.9-2.1-5.9-3.2-9.1-3.2c-1.9,0-3.7,0.3-5.4,0.8c-1.7,0.6-3.4,2-5.1,4.4c-1.7,2.4-2.6,5.6-2.6,9.6v43.3
				h-23.8V83.9z"/>
		</g>
		<linearGradient id="SVGID_8_" gradientUnits="userSpaceOnUse" x1="7.0962" y1="95.1199" x2="298.6359" y2="95.1199">
			<stop  offset="0" style="stop-color:#C4285D"/>
			<stop  offset="1" style="stop-color:#3A4F97"/>
		</linearGradient>
		<path class="st7" d="M293.7,146.1c-15.6-15.4-35.3-25.3-57-28.5c-2.8-0.4-5.3,1.5-5.7,4.3c-0.4,2.8,1.5,5.3,4.3,5.7
			c17.7,2.6,34.1,10.2,47.5,22c-16.5,14.5-37.6,22.7-59.8,23.1c-21.1,0.4-41.5-6.3-58.1-18.9c50.4-6.5,89.8-49.6,90.1-101.5
			c0-1.3-0.5-2.7-1.5-3.6c-1-1-2.4-1.6-3.7-1.5c-21.5,0.1-42,6.9-59.3,19.4c-2.3,1.6-2.8,4.8-1.1,7.1c0.8,1.1,2,1.8,3.3,2
			c1.3,0.2,2.7-0.1,3.8-0.9c14.2-10.3,30.8-16.2,48.2-17.3c-1.4,23-11.4,44.4-28.1,60.7c-14.5,14.1-32.8,22.9-52.4,25.5
			c31.1-40.2,28.6-98.4-7.7-135c-0.9-0.9-2.2-1.5-3.6-1.5c-1.4,0-2.7,0.5-3.6,1.5c-15.4,15.6-25.3,35.3-28.5,57
			c-0.4,2.8,1.5,5.3,4.3,5.7c2.8,0.4,5.3-1.5,5.7-4.3c2.6-17.7,10.2-34.1,22-47.5c15.1,17.1,23.2,39.2,22.7,62.4
			c-0.4,20.1-7.1,39.2-19.1,54.9c-6.4-50-49.1-89.3-100.3-89.8c-1.4,0-2.7,0.5-3.6,1.5c-1,0.9-1.5,2.3-1.5,3.6v9.4
			c0,0.2,0,0.3,0,0.5c1.8,17.2,7.9,33.9,17.9,48.1c1.6,2.3,4.8,2.8,7.1,1.2c1.1-0.8,1.8-1.9,2.1-3.3c0.2-1.3-0.1-2.7-0.8-3.8
			c-8.9-12.7-14.5-27.6-16.1-43v-3.9c22.7,1.5,43.9,11.5,60,28.2c13.9,14.4,22.6,32.6,25.2,52.1c-39.9-30.7-97.7-27.7-134.1,7.9
			c-1,1-1.5,2.2-1.5,3.6c0,1.3,0.5,2.7,1.5,3.6l6.6,6.6c0.1,0.1,0.3,0.2,0.4,0.4c18.1,14.8,41,22.9,64.5,22.9c0,0,0,0,0,0h0.2
			c18.3,0,36.3-4.9,52-14.2c1.2-0.7,2-1.8,2.3-3.1c0.3-1.3,0.1-2.7-0.5-3.8c-0.7-1.2-1.8-2-3.1-2.3c-1.3-0.3-2.7-0.1-3.8,0.6
			c-14.1,8.4-30.3,12.8-46.8,12.8h-0.3c-21,0-41.6-7.3-57.8-20.5l-2.7-2.7c17.1-15,39.1-23,62.2-22.7c24,0.4,46.4,9.8,63.3,26.4
			c0,0,0,0,0,0c0,0,0,0,0,0c0,0,0,0,0,0c0,0,0,0,0,0c19.3,19.1,45.1,29.7,72.5,29.7c0,0,0,0,0,0c27.4,0,53.2-10.5,72.6-29.7
			c1-0.9,1.5-2.3,1.5-3.6C295.2,148.3,294.7,147,293.7,146.1z"/>
	</g>
</g>
</svg>
